<mxfile host="app.diagrams.net" agent="Mozilla/5.0 (Windows NT 10.0; Win64; x64) AppleWebKit/537.36 (KHTML, like Gecko) Chrome/131.0.0.0 Safari/537.36" version="25.0.3">
  <diagram name="Page-1" id="f2ZAbShp_nGHpwJ-cl0o">
    <mxGraphModel dx="1720" dy="751" grid="1" gridSize="10" guides="1" tooltips="1" connect="1" arrows="1" fold="1" page="1" pageScale="1" pageWidth="3300" pageHeight="4681" math="0" shadow="0">
      <root>
        <mxCell id="0" />
        <mxCell id="1" parent="0" />
        <mxCell id="kKIHE9NT-JheVGxfKHp_-2" value="Joueur" style="html=1;whiteSpace=wrap;" parent="1" vertex="1">
          <mxGeometry x="400" y="90" width="80" height="30" as="geometry" />
        </mxCell>
        <mxCell id="kKIHE9NT-JheVGxfKHp_-3" value="utiliserRessource" style="html=1;whiteSpace=wrap;" parent="1" vertex="1">
          <mxGeometry x="600" y="90" width="120" height="30" as="geometry" />
        </mxCell>
        <mxCell id="kKIHE9NT-JheVGxfKHp_-5" value="Feuille" style="html=1;whiteSpace=wrap;" parent="1" vertex="1">
          <mxGeometry x="840" y="90" width="80" height="30" as="geometry" />
        </mxCell>
        <mxCell id="kKIHE9NT-JheVGxfKHp_-6" value="" style="endArrow=none;html=1;rounded=0;" parent="1" target="kKIHE9NT-JheVGxfKHp_-2" edge="1">
          <mxGeometry width="50" height="50" relative="1" as="geometry">
            <mxPoint x="440" y="1480" as="sourcePoint" />
            <mxPoint x="430" y="120" as="targetPoint" />
          </mxGeometry>
        </mxCell>
        <mxCell id="2sm0gQa3BKsLkEQH3Llw-13" value="Le joueur&amp;nbsp;&lt;div&gt;sélectionne&amp;nbsp;&lt;/div&gt;&lt;div&gt;une case&lt;/div&gt;" style="edgeLabel;html=1;align=center;verticalAlign=middle;resizable=0;points=[];" vertex="1" connectable="0" parent="kKIHE9NT-JheVGxfKHp_-6">
          <mxGeometry x="-0.431" y="-1" relative="1" as="geometry">
            <mxPoint x="-1" y="27" as="offset" />
          </mxGeometry>
        </mxCell>
        <mxCell id="kKIHE9NT-JheVGxfKHp_-7" value="" style="endArrow=none;html=1;rounded=0;" parent="1" edge="1">
          <mxGeometry width="50" height="50" relative="1" as="geometry">
            <mxPoint x="660" y="1480" as="sourcePoint" />
            <mxPoint x="659.52" y="120" as="targetPoint" />
          </mxGeometry>
        </mxCell>
        <mxCell id="kKIHE9NT-JheVGxfKHp_-9" value="" style="shape=umlActor;verticalLabelPosition=bottom;verticalAlign=top;html=1;outlineConnect=0;" parent="1" vertex="1">
          <mxGeometry x="425" y="20" width="30" height="60" as="geometry" />
        </mxCell>
        <mxCell id="kKIHE9NT-JheVGxfKHp_-10" value="" style="endArrow=open;endFill=1;endSize=12;html=1;rounded=0;" parent="1" edge="1">
          <mxGeometry width="160" relative="1" as="geometry">
            <mxPoint x="660" y="140" as="sourcePoint" />
            <mxPoint x="440" y="140" as="targetPoint" />
          </mxGeometry>
        </mxCell>
        <mxCell id="kKIHE9NT-JheVGxfKHp_-11" value="Demande au joueur quelle&amp;nbsp;&lt;div&gt;ressource utiliser&lt;/div&gt;" style="edgeLabel;html=1;align=center;verticalAlign=middle;resizable=0;points=[];" parent="kKIHE9NT-JheVGxfKHp_-10" vertex="1" connectable="0">
          <mxGeometry x="0.1165" y="1" relative="1" as="geometry">
            <mxPoint x="13" y="19" as="offset" />
          </mxGeometry>
        </mxCell>
        <mxCell id="kKIHE9NT-JheVGxfKHp_-12" value="" style="endArrow=open;endFill=1;endSize=12;html=1;rounded=0;" parent="1" edge="1">
          <mxGeometry width="160" relative="1" as="geometry">
            <mxPoint x="440" y="200" as="sourcePoint" />
            <mxPoint x="660" y="200" as="targetPoint" />
          </mxGeometry>
        </mxCell>
        <mxCell id="kKIHE9NT-JheVGxfKHp_-13" value="Choisis Rouge" style="edgeLabel;html=1;align=center;verticalAlign=middle;resizable=0;points=[];" parent="kKIHE9NT-JheVGxfKHp_-12" vertex="1" connectable="0">
          <mxGeometry x="0.1165" y="1" relative="1" as="geometry">
            <mxPoint x="-13" y="11" as="offset" />
          </mxGeometry>
        </mxCell>
        <mxCell id="kKIHE9NT-JheVGxfKHp_-19" value="" style="endArrow=none;html=1;rounded=0;" parent="1" edge="1">
          <mxGeometry width="50" height="50" relative="1" as="geometry">
            <mxPoint x="880" y="1480" as="sourcePoint" />
            <mxPoint x="880" y="120" as="targetPoint" />
          </mxGeometry>
        </mxCell>
        <mxCell id="kKIHE9NT-JheVGxfKHp_-24" value="Rouge" style="shape=umlFrame;whiteSpace=wrap;html=1;pointerEvents=0;" parent="1" vertex="1">
          <mxGeometry x="320" y="180" width="680" height="380" as="geometry" />
        </mxCell>
        <mxCell id="kKIHE9NT-JheVGxfKHp_-25" value="" style="endArrow=open;endFill=1;endSize=12;html=1;rounded=0;" parent="1" edge="1">
          <mxGeometry width="160" relative="1" as="geometry">
            <mxPoint x="660" y="230" as="sourcePoint" />
            <mxPoint x="880" y="230" as="targetPoint" />
          </mxGeometry>
        </mxCell>
        <mxCell id="kKIHE9NT-JheVGxfKHp_-26" value="Vérifie si suffisamment de ressource" style="edgeLabel;html=1;align=center;verticalAlign=middle;resizable=0;points=[];" parent="kKIHE9NT-JheVGxfKHp_-25" vertex="1" connectable="0">
          <mxGeometry x="0.1165" y="1" relative="1" as="geometry">
            <mxPoint x="-13" y="11" as="offset" />
          </mxGeometry>
        </mxCell>
        <mxCell id="kKIHE9NT-JheVGxfKHp_-30" value="" style="swimlane;startSize=0;strokeColor=#FFA18A;" parent="1" vertex="1">
          <mxGeometry x="400" y="260" width="520" height="70" as="geometry">
            <mxRectangle x="400" y="260" width="50" height="40" as="alternateBounds" />
          </mxGeometry>
        </mxCell>
        <mxCell id="kKIHE9NT-JheVGxfKHp_-31" value="" style="endArrow=open;endFill=1;endSize=12;html=1;rounded=0;" parent="kKIHE9NT-JheVGxfKHp_-30" edge="1">
          <mxGeometry width="160" relative="1" as="geometry">
            <mxPoint x="260" y="39.69" as="sourcePoint" />
            <mxPoint x="40" y="39.69" as="targetPoint" />
          </mxGeometry>
        </mxCell>
        <mxCell id="kKIHE9NT-JheVGxfKHp_-32" value="Retour en (1)" style="edgeLabel;html=1;align=center;verticalAlign=middle;resizable=0;points=[];" parent="kKIHE9NT-JheVGxfKHp_-31" vertex="1" connectable="0">
          <mxGeometry x="0.1165" y="1" relative="1" as="geometry">
            <mxPoint x="13" y="11" as="offset" />
          </mxGeometry>
        </mxCell>
        <mxCell id="kKIHE9NT-JheVGxfKHp_-27" value="" style="endArrow=open;endFill=1;endSize=12;html=1;rounded=0;" parent="kKIHE9NT-JheVGxfKHp_-30" edge="1">
          <mxGeometry width="160" relative="1" as="geometry">
            <mxPoint x="480" y="20" as="sourcePoint" />
            <mxPoint x="260" y="20" as="targetPoint" />
          </mxGeometry>
        </mxCell>
        <mxCell id="kKIHE9NT-JheVGxfKHp_-28" value="Non" style="edgeLabel;html=1;align=center;verticalAlign=middle;resizable=0;points=[];" parent="kKIHE9NT-JheVGxfKHp_-27" vertex="1" connectable="0">
          <mxGeometry x="0.1165" y="1" relative="1" as="geometry">
            <mxPoint x="13" y="11" as="offset" />
          </mxGeometry>
        </mxCell>
        <mxCell id="kKIHE9NT-JheVGxfKHp_-33" value="(1)" style="text;html=1;align=center;verticalAlign=middle;resizable=0;points=[];autosize=1;strokeColor=none;fillColor=none;" parent="1" vertex="1">
          <mxGeometry x="400" y="128" width="40" height="30" as="geometry" />
        </mxCell>
        <mxCell id="P56Lr1rfy2fVJmNyvnQb-1" value="" style="endArrow=open;endFill=1;endSize=12;html=1;rounded=0;" parent="1" edge="1">
          <mxGeometry width="160" relative="1" as="geometry">
            <mxPoint x="660" y="369.69" as="sourcePoint" />
            <mxPoint x="440" y="369.69" as="targetPoint" />
          </mxGeometry>
        </mxCell>
        <mxCell id="P56Lr1rfy2fVJmNyvnQb-2" value="Demande de la position du dé a changer" style="edgeLabel;html=1;align=center;verticalAlign=middle;resizable=0;points=[];" parent="P56Lr1rfy2fVJmNyvnQb-1" vertex="1" connectable="0">
          <mxGeometry x="0.1165" y="1" relative="1" as="geometry">
            <mxPoint x="13" y="11" as="offset" />
          </mxGeometry>
        </mxCell>
        <mxCell id="P56Lr1rfy2fVJmNyvnQb-3" value="" style="endArrow=open;endFill=1;endSize=12;html=1;rounded=0;" parent="1" edge="1">
          <mxGeometry width="160" relative="1" as="geometry">
            <mxPoint x="880" y="350" as="sourcePoint" />
            <mxPoint x="660" y="350" as="targetPoint" />
          </mxGeometry>
        </mxCell>
        <mxCell id="P56Lr1rfy2fVJmNyvnQb-4" value="Oui" style="edgeLabel;html=1;align=center;verticalAlign=middle;resizable=0;points=[];" parent="P56Lr1rfy2fVJmNyvnQb-3" vertex="1" connectable="0">
          <mxGeometry x="0.1165" y="1" relative="1" as="geometry">
            <mxPoint x="13" y="11" as="offset" />
          </mxGeometry>
        </mxCell>
        <mxCell id="P56Lr1rfy2fVJmNyvnQb-5" value="" style="endArrow=open;endFill=1;endSize=12;html=1;rounded=0;" parent="1" edge="1">
          <mxGeometry width="160" relative="1" as="geometry">
            <mxPoint x="440" y="410" as="sourcePoint" />
            <mxPoint x="660" y="410" as="targetPoint" />
          </mxGeometry>
        </mxCell>
        <mxCell id="P56Lr1rfy2fVJmNyvnQb-6" value="Rend la valeur, index du dé demandé&amp;nbsp;" style="edgeLabel;html=1;align=center;verticalAlign=middle;resizable=0;points=[];" parent="P56Lr1rfy2fVJmNyvnQb-5" vertex="1" connectable="0">
          <mxGeometry x="0.1165" y="1" relative="1" as="geometry">
            <mxPoint x="-13" y="11" as="offset" />
          </mxGeometry>
        </mxCell>
        <mxCell id="P56Lr1rfy2fVJmNyvnQb-7" value="" style="endArrow=open;endFill=1;endSize=12;html=1;rounded=0;" parent="1" edge="1">
          <mxGeometry width="160" relative="1" as="geometry">
            <mxPoint x="660" y="450" as="sourcePoint" />
            <mxPoint x="440" y="450" as="targetPoint" />
          </mxGeometry>
        </mxCell>
        <mxCell id="P56Lr1rfy2fVJmNyvnQb-8" value="Demande incrémente / décrémente" style="edgeLabel;html=1;align=center;verticalAlign=middle;resizable=0;points=[];" parent="P56Lr1rfy2fVJmNyvnQb-7" vertex="1" connectable="0">
          <mxGeometry x="0.1165" y="1" relative="1" as="geometry">
            <mxPoint x="13" y="11" as="offset" />
          </mxGeometry>
        </mxCell>
        <mxCell id="P56Lr1rfy2fVJmNyvnQb-9" value="" style="endArrow=open;endFill=1;endSize=12;html=1;rounded=0;" parent="1" edge="1">
          <mxGeometry width="160" relative="1" as="geometry">
            <mxPoint x="440" y="490" as="sourcePoint" />
            <mxPoint x="660" y="490" as="targetPoint" />
          </mxGeometry>
        </mxCell>
        <mxCell id="P56Lr1rfy2fVJmNyvnQb-10" value="Rend le résultat" style="edgeLabel;html=1;align=center;verticalAlign=middle;resizable=0;points=[];" parent="P56Lr1rfy2fVJmNyvnQb-9" vertex="1" connectable="0">
          <mxGeometry x="0.1165" y="1" relative="1" as="geometry">
            <mxPoint x="-13" y="11" as="offset" />
          </mxGeometry>
        </mxCell>
        <mxCell id="P56Lr1rfy2fVJmNyvnQb-11" value="" style="endArrow=open;endFill=1;endSize=12;html=1;rounded=0;" parent="1" edge="1">
          <mxGeometry width="160" relative="1" as="geometry">
            <mxPoint x="660" y="530" as="sourcePoint" />
            <mxPoint x="440" y="530" as="targetPoint" />
          </mxGeometry>
        </mxCell>
        <mxCell id="P56Lr1rfy2fVJmNyvnQb-12" value="Donne la nouvelle valeur de dé locale" style="edgeLabel;html=1;align=center;verticalAlign=middle;resizable=0;points=[];" parent="P56Lr1rfy2fVJmNyvnQb-11" vertex="1" connectable="0">
          <mxGeometry x="0.1165" y="1" relative="1" as="geometry">
            <mxPoint x="13" y="11" as="offset" />
          </mxGeometry>
        </mxCell>
        <mxCell id="P56Lr1rfy2fVJmNyvnQb-13" value="Blanc" style="shape=umlFrame;whiteSpace=wrap;html=1;pointerEvents=0;" parent="1" vertex="1">
          <mxGeometry x="320" y="600" width="680" height="390" as="geometry" />
        </mxCell>
        <mxCell id="P56Lr1rfy2fVJmNyvnQb-14" value="" style="swimlane;startSize=0;strokeColor=#FFA18A;" parent="1" vertex="1">
          <mxGeometry x="400" y="670" width="520" height="70" as="geometry">
            <mxRectangle x="400" y="260" width="50" height="40" as="alternateBounds" />
          </mxGeometry>
        </mxCell>
        <mxCell id="P56Lr1rfy2fVJmNyvnQb-15" value="" style="endArrow=open;endFill=1;endSize=12;html=1;rounded=0;" parent="P56Lr1rfy2fVJmNyvnQb-14" edge="1">
          <mxGeometry width="160" relative="1" as="geometry">
            <mxPoint x="260" y="39.69" as="sourcePoint" />
            <mxPoint x="40" y="39.69" as="targetPoint" />
          </mxGeometry>
        </mxCell>
        <mxCell id="P56Lr1rfy2fVJmNyvnQb-16" value="Retour en (1)" style="edgeLabel;html=1;align=center;verticalAlign=middle;resizable=0;points=[];" parent="P56Lr1rfy2fVJmNyvnQb-15" vertex="1" connectable="0">
          <mxGeometry x="0.1165" y="1" relative="1" as="geometry">
            <mxPoint x="13" y="11" as="offset" />
          </mxGeometry>
        </mxCell>
        <mxCell id="P56Lr1rfy2fVJmNyvnQb-17" value="" style="endArrow=open;endFill=1;endSize=12;html=1;rounded=0;" parent="P56Lr1rfy2fVJmNyvnQb-14" edge="1">
          <mxGeometry width="160" relative="1" as="geometry">
            <mxPoint x="480" y="20" as="sourcePoint" />
            <mxPoint x="260" y="20" as="targetPoint" />
          </mxGeometry>
        </mxCell>
        <mxCell id="P56Lr1rfy2fVJmNyvnQb-18" value="Non" style="edgeLabel;html=1;align=center;verticalAlign=middle;resizable=0;points=[];" parent="P56Lr1rfy2fVJmNyvnQb-17" vertex="1" connectable="0">
          <mxGeometry x="0.1165" y="1" relative="1" as="geometry">
            <mxPoint x="13" y="11" as="offset" />
          </mxGeometry>
        </mxCell>
        <mxCell id="P56Lr1rfy2fVJmNyvnQb-19" value="" style="endArrow=open;endFill=1;endSize=12;html=1;rounded=0;" parent="1" edge="1">
          <mxGeometry width="160" relative="1" as="geometry">
            <mxPoint x="440" y="618.5699999999999" as="sourcePoint" />
            <mxPoint x="660" y="618.5699999999999" as="targetPoint" />
          </mxGeometry>
        </mxCell>
        <mxCell id="P56Lr1rfy2fVJmNyvnQb-20" value="Choisis Blanc" style="edgeLabel;html=1;align=center;verticalAlign=middle;resizable=0;points=[];" parent="P56Lr1rfy2fVJmNyvnQb-19" vertex="1" connectable="0">
          <mxGeometry x="0.1165" y="1" relative="1" as="geometry">
            <mxPoint x="-13" y="11" as="offset" />
          </mxGeometry>
        </mxCell>
        <mxCell id="P56Lr1rfy2fVJmNyvnQb-21" value="" style="endArrow=open;endFill=1;endSize=12;html=1;rounded=0;" parent="1" edge="1">
          <mxGeometry width="160" relative="1" as="geometry">
            <mxPoint x="660" y="648.5699999999999" as="sourcePoint" />
            <mxPoint x="880" y="648.5699999999999" as="targetPoint" />
          </mxGeometry>
        </mxCell>
        <mxCell id="P56Lr1rfy2fVJmNyvnQb-22" value="Vérifie si suffisamment de ressource" style="edgeLabel;html=1;align=center;verticalAlign=middle;resizable=0;points=[];" parent="P56Lr1rfy2fVJmNyvnQb-21" vertex="1" connectable="0">
          <mxGeometry x="0.1165" y="1" relative="1" as="geometry">
            <mxPoint x="-13" y="11" as="offset" />
          </mxGeometry>
        </mxCell>
        <mxCell id="P56Lr1rfy2fVJmNyvnQb-23" value="" style="endArrow=open;endFill=1;endSize=12;html=1;rounded=0;" parent="1" edge="1">
          <mxGeometry width="160" relative="1" as="geometry">
            <mxPoint x="880" y="760" as="sourcePoint" />
            <mxPoint x="660" y="760" as="targetPoint" />
          </mxGeometry>
        </mxCell>
        <mxCell id="P56Lr1rfy2fVJmNyvnQb-24" value="Oui" style="edgeLabel;html=1;align=center;verticalAlign=middle;resizable=0;points=[];" parent="P56Lr1rfy2fVJmNyvnQb-23" vertex="1" connectable="0">
          <mxGeometry x="0.1165" y="1" relative="1" as="geometry">
            <mxPoint x="13" y="11" as="offset" />
          </mxGeometry>
        </mxCell>
        <mxCell id="P56Lr1rfy2fVJmNyvnQb-25" value="" style="endArrow=open;endFill=1;endSize=12;html=1;rounded=0;" parent="1" edge="1">
          <mxGeometry width="160" relative="1" as="geometry">
            <mxPoint x="660" y="790" as="sourcePoint" />
            <mxPoint x="440" y="790" as="targetPoint" />
          </mxGeometry>
        </mxCell>
        <mxCell id="P56Lr1rfy2fVJmNyvnQb-26" value="Demande de la position de la&amp;nbsp;&lt;div&gt;case a retourner&lt;/div&gt;" style="edgeLabel;html=1;align=center;verticalAlign=middle;resizable=0;points=[];" parent="P56Lr1rfy2fVJmNyvnQb-25" vertex="1" connectable="0">
          <mxGeometry x="0.1165" y="1" relative="1" as="geometry">
            <mxPoint x="13" y="19" as="offset" />
          </mxGeometry>
        </mxCell>
        <mxCell id="P56Lr1rfy2fVJmNyvnQb-27" value="" style="endArrow=open;endFill=1;endSize=12;html=1;rounded=0;" parent="1" edge="1">
          <mxGeometry width="160" relative="1" as="geometry">
            <mxPoint x="440" y="830.31" as="sourcePoint" />
            <mxPoint x="660" y="830.31" as="targetPoint" />
          </mxGeometry>
        </mxCell>
        <mxCell id="P56Lr1rfy2fVJmNyvnQb-28" value="Rend la position de la case&lt;div&gt;a retourner et la copie dans case_choisie&lt;/div&gt;" style="edgeLabel;html=1;align=center;verticalAlign=middle;resizable=0;points=[];" parent="P56Lr1rfy2fVJmNyvnQb-27" vertex="1" connectable="0">
          <mxGeometry x="0.1165" y="1" relative="1" as="geometry">
            <mxPoint x="-13" y="21" as="offset" />
          </mxGeometry>
        </mxCell>
        <mxCell id="P56Lr1rfy2fVJmNyvnQb-29" value="" style="endArrow=open;endFill=1;endSize=12;html=1;rounded=0;" parent="1" edge="1">
          <mxGeometry width="160" relative="1" as="geometry">
            <mxPoint x="660" y="880" as="sourcePoint" />
            <mxPoint x="440" y="880" as="targetPoint" />
          </mxGeometry>
        </mxCell>
        <mxCell id="P56Lr1rfy2fVJmNyvnQb-30" value="Demande la couleur choisie" style="edgeLabel;html=1;align=center;verticalAlign=middle;resizable=0;points=[];" parent="P56Lr1rfy2fVJmNyvnQb-29" vertex="1" connectable="0">
          <mxGeometry x="0.1165" y="1" relative="1" as="geometry">
            <mxPoint x="13" y="11" as="offset" />
          </mxGeometry>
        </mxCell>
        <mxCell id="P56Lr1rfy2fVJmNyvnQb-31" value="" style="endArrow=open;endFill=1;endSize=12;html=1;rounded=0;" parent="1" edge="1">
          <mxGeometry width="160" relative="1" as="geometry">
            <mxPoint x="440" y="920" as="sourcePoint" />
            <mxPoint x="660" y="920" as="targetPoint" />
          </mxGeometry>
        </mxCell>
        <mxCell id="P56Lr1rfy2fVJmNyvnQb-32" value="Rend le résultat" style="edgeLabel;html=1;align=center;verticalAlign=middle;resizable=0;points=[];" parent="P56Lr1rfy2fVJmNyvnQb-31" vertex="1" connectable="0">
          <mxGeometry x="0.1165" y="1" relative="1" as="geometry">
            <mxPoint x="-13" y="11" as="offset" />
          </mxGeometry>
        </mxCell>
        <mxCell id="P56Lr1rfy2fVJmNyvnQb-33" value="" style="endArrow=open;endFill=1;endSize=12;html=1;rounded=0;" parent="1" edge="1">
          <mxGeometry width="160" relative="1" as="geometry">
            <mxPoint x="660" y="960" as="sourcePoint" />
            <mxPoint x="440" y="960" as="targetPoint" />
          </mxGeometry>
        </mxCell>
        <mxCell id="P56Lr1rfy2fVJmNyvnQb-34" value="Met à jour case_choisie" style="edgeLabel;html=1;align=center;verticalAlign=middle;resizable=0;points=[];" parent="P56Lr1rfy2fVJmNyvnQb-33" vertex="1" connectable="0">
          <mxGeometry x="0.1165" y="1" relative="1" as="geometry">
            <mxPoint x="13" y="11" as="offset" />
          </mxGeometry>
        </mxCell>
        <mxCell id="2sm0gQa3BKsLkEQH3Llw-1" value="Jaune" style="shape=umlFrame;whiteSpace=wrap;html=1;pointerEvents=0;" vertex="1" parent="1">
          <mxGeometry x="320" y="1030" width="680" height="350" as="geometry" />
        </mxCell>
        <mxCell id="2sm0gQa3BKsLkEQH3Llw-2" value="" style="swimlane;startSize=0;strokeColor=#FFA18A;" vertex="1" parent="1">
          <mxGeometry x="400" y="1190" width="520" height="110" as="geometry">
            <mxRectangle x="400" y="260" width="50" height="40" as="alternateBounds" />
          </mxGeometry>
        </mxCell>
        <mxCell id="2sm0gQa3BKsLkEQH3Llw-3" value="" style="endArrow=open;endFill=1;endSize=12;html=1;rounded=0;" edge="1" parent="2sm0gQa3BKsLkEQH3Llw-2">
          <mxGeometry width="160" relative="1" as="geometry">
            <mxPoint x="260" y="80" as="sourcePoint" />
            <mxPoint x="40" y="80" as="targetPoint" />
          </mxGeometry>
        </mxCell>
        <mxCell id="2sm0gQa3BKsLkEQH3Llw-4" value="Retour en (1)" style="edgeLabel;html=1;align=center;verticalAlign=middle;resizable=0;points=[];" vertex="1" connectable="0" parent="2sm0gQa3BKsLkEQH3Llw-3">
          <mxGeometry x="0.1165" y="1" relative="1" as="geometry">
            <mxPoint x="13" y="11" as="offset" />
          </mxGeometry>
        </mxCell>
        <mxCell id="2sm0gQa3BKsLkEQH3Llw-5" value="" style="endArrow=open;endFill=1;endSize=12;html=1;rounded=0;" edge="1" parent="2sm0gQa3BKsLkEQH3Llw-2">
          <mxGeometry width="160" relative="1" as="geometry">
            <mxPoint x="480" y="20" as="sourcePoint" />
            <mxPoint x="260" y="20" as="targetPoint" />
          </mxGeometry>
        </mxCell>
        <mxCell id="2sm0gQa3BKsLkEQH3Llw-6" value="Non" style="edgeLabel;html=1;align=center;verticalAlign=middle;resizable=0;points=[];" vertex="1" connectable="0" parent="2sm0gQa3BKsLkEQH3Llw-5">
          <mxGeometry x="0.1165" y="1" relative="1" as="geometry">
            <mxPoint x="13" y="11" as="offset" />
          </mxGeometry>
        </mxCell>
        <mxCell id="2sm0gQa3BKsLkEQH3Llw-20" value="" style="endArrow=open;endFill=1;endSize=12;html=1;rounded=0;" edge="1" parent="2sm0gQa3BKsLkEQH3Llw-2">
          <mxGeometry width="160" relative="1" as="geometry">
            <mxPoint x="260" y="50" as="sourcePoint" />
            <mxPoint x="40" y="50" as="targetPoint" />
          </mxGeometry>
        </mxCell>
        <mxCell id="2sm0gQa3BKsLkEQH3Llw-21" value="Supprime choisirCase" style="edgeLabel;html=1;align=center;verticalAlign=middle;resizable=0;points=[];" vertex="1" connectable="0" parent="2sm0gQa3BKsLkEQH3Llw-20">
          <mxGeometry x="0.1165" y="1" relative="1" as="geometry">
            <mxPoint x="13" y="11" as="offset" />
          </mxGeometry>
        </mxCell>
        <mxCell id="2sm0gQa3BKsLkEQH3Llw-7" value="" style="endArrow=open;endFill=1;endSize=12;html=1;rounded=0;" edge="1" parent="1">
          <mxGeometry width="160" relative="1" as="geometry">
            <mxPoint x="440" y="1050" as="sourcePoint" />
            <mxPoint x="660" y="1050" as="targetPoint" />
          </mxGeometry>
        </mxCell>
        <mxCell id="2sm0gQa3BKsLkEQH3Llw-8" value="Choisis Jaune" style="edgeLabel;html=1;align=center;verticalAlign=middle;resizable=0;points=[];" vertex="1" connectable="0" parent="2sm0gQa3BKsLkEQH3Llw-7">
          <mxGeometry x="0.1165" y="1" relative="1" as="geometry">
            <mxPoint x="-13" y="11" as="offset" />
          </mxGeometry>
        </mxCell>
        <mxCell id="2sm0gQa3BKsLkEQH3Llw-9" value="" style="endArrow=open;endFill=1;endSize=12;html=1;rounded=0;" edge="1" parent="1">
          <mxGeometry width="160" relative="1" as="geometry">
            <mxPoint x="660" y="1160" as="sourcePoint" />
            <mxPoint x="880" y="1160" as="targetPoint" />
          </mxGeometry>
        </mxCell>
        <mxCell id="2sm0gQa3BKsLkEQH3Llw-10" value="Vérifie si suffisamment de ressource" style="edgeLabel;html=1;align=center;verticalAlign=middle;resizable=0;points=[];" vertex="1" connectable="0" parent="2sm0gQa3BKsLkEQH3Llw-9">
          <mxGeometry x="0.1165" y="1" relative="1" as="geometry">
            <mxPoint x="-13" y="11" as="offset" />
          </mxGeometry>
        </mxCell>
        <mxCell id="2sm0gQa3BKsLkEQH3Llw-11" value="" style="endArrow=open;endFill=1;endSize=12;html=1;rounded=0;" edge="1" parent="1">
          <mxGeometry width="160" relative="1" as="geometry">
            <mxPoint x="660" y="1080" as="sourcePoint" />
            <mxPoint x="440" y="1080" as="targetPoint" />
          </mxGeometry>
        </mxCell>
        <mxCell id="2sm0gQa3BKsLkEQH3Llw-12" value="Appelle choisirCase&amp;nbsp;" style="edgeLabel;html=1;align=center;verticalAlign=middle;resizable=0;points=[];" vertex="1" connectable="0" parent="2sm0gQa3BKsLkEQH3Llw-11">
          <mxGeometry x="0.1165" y="1" relative="1" as="geometry">
            <mxPoint x="13" y="11" as="offset" />
          </mxGeometry>
        </mxCell>
        <mxCell id="2sm0gQa3BKsLkEQH3Llw-18" value="" style="endArrow=open;endFill=1;endSize=12;html=1;rounded=0;" edge="1" parent="1">
          <mxGeometry width="160" relative="1" as="geometry">
            <mxPoint x="880" y="1320" as="sourcePoint" />
            <mxPoint x="660" y="1320" as="targetPoint" />
          </mxGeometry>
        </mxCell>
        <mxCell id="2sm0gQa3BKsLkEQH3Llw-19" value="Oui" style="edgeLabel;html=1;align=center;verticalAlign=middle;resizable=0;points=[];" vertex="1" connectable="0" parent="2sm0gQa3BKsLkEQH3Llw-18">
          <mxGeometry x="0.1165" y="1" relative="1" as="geometry">
            <mxPoint x="13" y="11" as="offset" />
          </mxGeometry>
        </mxCell>
        <mxCell id="2sm0gQa3BKsLkEQH3Llw-22" value="" style="endArrow=open;endFill=1;endSize=12;html=1;rounded=0;" edge="1" parent="1">
          <mxGeometry width="160" relative="1" as="geometry">
            <mxPoint x="660" y="1340" as="sourcePoint" />
            <mxPoint x="440" y="1340" as="targetPoint" />
          </mxGeometry>
        </mxCell>
        <mxCell id="2sm0gQa3BKsLkEQH3Llw-23" value="Apelle choisirAction" style="edgeLabel;html=1;align=center;verticalAlign=middle;resizable=0;points=[];" vertex="1" connectable="0" parent="2sm0gQa3BKsLkEQH3Llw-22">
          <mxGeometry x="0.1165" y="1" relative="1" as="geometry">
            <mxPoint x="13" y="11" as="offset" />
          </mxGeometry>
        </mxCell>
      </root>
    </mxGraphModel>
  </diagram>
</mxfile>
